<svg width="681" height="697" viewBox="0 0 681 697" fill="none" xmlns="http://www.w3.org/2000/svg">
<path d="M578.116 224.353L580.724 219.235L572.451 204.013L575.075 187.114L565.124 177.908L566.985 147.698L561.353 148.313L555.755 142.281L551.419 156.106H546.534L537.513 169.633L541.285 186.549L534.141 196.12L539.391 214.166H522.495L494.32 229.006L484.551 252.103L487.375 262.439V276.713L487.326 276.796L493.007 277.096L497.709 290.422L513.292 283.659L517.046 284.989L525.884 270.698L521.183 266.377L528.875 261.309L548.046 263.935L566.104 249.046L579.029 238.394L575.458 229.571L578.116 224.353Z" fill="#CBCBCB" stroke="black" stroke-opacity="0.2" stroke-width="1.4158" stroke-miterlimit="10"/>
<path d="M647.093 220.049L631.327 215.313C631.327 215.313 636.975 204.146 637.241 203.349C637.507 202.568 627.772 204.013 627.772 204.013L616.99 211.774L612.388 205.193L613.053 227.144L608.351 231.232L622.506 233.858L635.58 223.738L640.763 228.075L635.58 238.062L637.225 245.689L649.718 236.217L667.46 227.011L678.059 229.055L680.136 215.413L678.226 211.142L650.764 207.952L647.076 220.049H647.093Z" fill="#CBCBCB" stroke="black" stroke-opacity="0.2" stroke-width="1.4158" stroke-miterlimit="10"/>
<path d="M667.477 187.147L637.158 184.023L612.405 205.177L617.007 211.757L627.788 203.997C627.788 203.997 637.507 202.551 637.258 203.332C636.992 204.113 631.344 215.296 631.344 215.296L647.109 220.032L650.797 207.935L678.259 211.125L667.51 187.147H667.477Z" fill="#CBCBCB" stroke="black" stroke-opacity="0.2" stroke-width="1.4158" stroke-miterlimit="10"/>
<path d="M637.158 184.039L589.811 145.188L566.985 147.698L565.125 177.908L575.076 187.113L572.451 204.013L580.724 219.234L578.116 224.352L596.108 226.214L603.982 235.037L608.352 231.232L613.053 227.144L612.405 205.193L637.158 184.039Z" fill="#CBCBCB" stroke="black" stroke-opacity="0.2" stroke-width="1.4158" stroke-miterlimit="10"/>
<path d="M481.212 117.388L453.169 104.277L441.54 107.8L443.002 99.4917L421.206 88.89L414.361 92.2134L412.7 84.3203L410.009 84.0544L405.59 92.9113L393.23 97.9463L385.787 118.086L377.215 118.236L353.425 70.7773L332.675 66.5067C332.675 66.5067 332.293 58.5804 331.994 52.781L311.377 50.4712L317.391 63.5655L289.781 58.7798L263.399 73.1037L260.907 90.7179V101.984L279.697 123.769L306.742 134.288L267.12 215.446L273.832 225.483L298.12 261.841L409.427 270.98L424.894 236.301L429.213 219.766L445.926 199.294L440.66 186.516L459.067 175.997L481.262 117.355L481.212 117.388Z" fill="#CBCBCB" stroke="black" stroke-opacity="0.2" stroke-width="1.4158" stroke-miterlimit="10"/>
<path d="M246.537 66.8886L241.354 41.9629L248.613 23.4681L241.138 15.5749L240.722 1.25098L229.093 1.6664L226.817 14.3287L190.053 30.1149L187.145 24.0995L157.242 19.9452L169.502 43.6246L185.7 53.3789L186.73 57.7492L196.449 60.491L199.655 111.971L216.368 125.68L218.61 104.443L234.575 109.528L241.154 91.482L260.874 90.7342L263.366 73.12L246.537 66.8886Z" fill="#CBCBCB" stroke="black" stroke-opacity="0.2" stroke-width="1.4158" stroke-miterlimit="10"/>
<path d="M353.375 70.7936L377.165 118.252L385.737 118.103L393.18 97.9626L405.54 92.9276L409.959 84.0706L412.65 84.3365L417.634 66.8885L406.636 55.0572L402.682 59.012L394.791 37.2104L388.977 14.3618L387.315 27.2401L372.779 41.3646L368.626 59.8429L350.352 53.196L333.539 52.9966L331.928 52.8138C332.243 58.6132 332.609 66.5396 332.609 66.5396L353.358 70.8102L353.375 70.7936Z" fill="#CBCBCB" stroke="black" stroke-opacity="0.2" stroke-width="1.4158" stroke-miterlimit="10"/>
<path d="M440.61 186.549L460.329 193.877L457.705 223.555L466.908 240.272L474.799 235.951L475.73 242.897L465.779 257.554L478.737 276.348L487.326 276.796L487.375 276.713V262.439L484.551 252.103L494.32 229.005L522.495 214.166H539.391L534.141 196.12L541.285 186.549L537.513 169.632L546.534 156.106H551.419L555.755 142.281L526.05 135.218L517.744 143.328L502.178 118.601L494.486 123.586L481.212 117.388L459.017 176.03L440.61 186.549Z" fill="#CBCBCB" stroke="black" stroke-opacity="0.2" stroke-width="1.4158" stroke-miterlimit="10"/>
<path d="M578.647 403.518L589.927 376.1L565.689 376.283L557.05 365.947L511.032 348.549L486.063 364.95L467.656 360.314V380.221L456.957 403.518L461.841 414.884L452.638 425.121L443.235 421.182L406.985 428.876L402.732 442.635L400.273 450.545L397.034 453.12L414.876 448.983L428.034 450.678L427.469 457.441L460.147 450.678L466.908 475.088H478.172L472.357 492.569L479.667 505.714L505.035 493.134L535.836 487.867L549.159 482.234L550.671 469.621L555.771 465.085L557.432 455.746L563.064 457.806L572.268 442.402L568.696 421.365L585.791 416.48L578.647 403.518Z" fill="#CBCBCB" stroke="black" stroke-opacity="0.2" stroke-width="1.4158" stroke-miterlimit="10"/>
<path d="M667.46 227.011L649.718 236.217L637.241 245.672L635.597 238.045L640.78 228.058L635.597 223.721L622.522 233.841L608.351 231.232L603.982 235.037L596.108 226.214L578.116 224.353L575.458 229.57L579.029 238.394L566.104 249.046L575.341 264.084L597.021 247.916L618.568 261.592L626.991 253.566L638.155 261.592L648.937 261.193L660.367 252.652L671.331 252.868L675.152 248.215L678.076 229.055L667.46 227.011Z" fill="#CBCBCB" stroke="black" stroke-opacity="0.2" stroke-width="1.4158" stroke-miterlimit="10"/>
<path d="M487.326 276.796L478.737 276.347L465.778 257.553L475.73 242.897L474.799 235.951L466.908 240.272L457.705 223.555L460.329 193.876L440.61 186.548L445.876 199.327L429.147 219.799L424.827 236.333L409.361 271.013L401.553 288.544L399.891 323.424L412.069 316.91L410.374 324.238L426.156 330.818L428.964 324.238L444.746 332.513L478.255 325.019L474.799 294.194L487.326 276.796Z" fill="#CBCBCB" stroke="black" stroke-opacity="0.2" stroke-width="1.4158" stroke-miterlimit="10"/>
<path d="M478.554 327.628L478.255 325.019L444.746 332.513L428.964 324.238L426.157 330.818L410.374 324.238L412.069 316.91L399.891 323.424L397.981 363.504L368.875 384.924L358.342 401.64L364.921 428.876L402.732 442.635L406.985 428.876L443.235 421.182L452.638 425.12L461.841 414.884L456.957 403.518L467.656 380.221V360.314L486.063 364.95L478.554 327.628Z" fill="#CBCBCB" stroke="black" stroke-opacity="0.2" stroke-width="1.4158" stroke-miterlimit="10"/>
<path d="M568.696 421.365L572.268 442.403L563.064 457.807L557.432 455.746L555.771 465.085L560.439 473.028L572.268 473.859L572.982 466.115L594.38 443.051L595.41 421.249L585.791 416.48L568.696 421.365Z" fill="#CBCBCB" stroke="black" stroke-opacity="0.2" stroke-width="1.4158" stroke-miterlimit="10"/>
<path d="M560.44 473.028L555.771 465.085L550.671 469.621L549.159 482.234L535.836 487.867L505.035 493.135L508.607 502.872L551.385 504.75L557.615 492.071L571.122 486.056L572.268 473.859L560.44 473.028Z" fill="#CBCBCB" stroke="black" stroke-opacity="0.2" stroke-width="1.4158" stroke-miterlimit="10"/>
<path d="M479.667 505.714L472.357 492.57L478.172 475.088H466.908L460.147 450.678L427.469 457.441L428.034 450.678L414.876 448.983L397.034 453.121L388.777 458.937L375.62 488.249L364.356 493.135L361.299 497.256H392.714L402.101 503.088H420.143L426.904 533.514L441.357 535.774L441.175 541.025L452.206 544.747L465.214 531.337L493.871 518.243L508.607 502.872L505.035 493.135L479.667 505.714Z" fill="#CBCBCB" stroke="black" stroke-opacity="0.2" stroke-width="1.4158" stroke-miterlimit="10"/>
<path d="M441.357 535.774L426.904 533.514L420.143 503.088H402.101L392.715 497.255H361.299L341.646 523.859L334.586 549.815H347.261L352.86 563.524L393.844 570.337L389.907 566.399L404.178 558.307L422.585 563.757L426.705 558.307L438.218 559.171L452.206 544.747L441.175 541.025L441.357 535.774Z" fill="#CBCBCB" stroke="black" stroke-opacity="0.2" stroke-width="1.4158" stroke-miterlimit="10"/>
<path d="M660.367 252.651L648.937 261.193L638.155 261.591L626.991 253.565L618.568 261.591L650.017 280.552L657.509 277.295L657.094 270.232L671.331 252.867L660.367 252.651Z" fill="#CBCBCB" stroke="black" stroke-opacity="0.2" stroke-width="1.4158" stroke-miterlimit="10"/>
<path d="M631.892 302.453L623.17 300.11L618.568 286.7L625.679 283.809L618.568 261.591L597.021 247.916L575.341 264.084L566.105 249.045L548.046 263.934L528.875 261.309L521.183 266.377L525.885 270.698L517.046 284.988L513.292 283.659L497.709 290.422L493.007 277.095L487.326 276.796L474.8 294.194L478.255 325.019L478.554 327.628L486.063 364.95L511.033 348.549L557.051 365.947L565.689 376.283L589.928 376.1L578.647 403.518L585.791 416.48L595.41 421.249L604.763 408.154L607.255 373.89L604.547 330.469L623.237 320.715L631.892 302.453Z" fill="#CBCBCB" stroke="black" stroke-opacity="0.2" stroke-width="1.4158" stroke-miterlimit="10"/>
<path d="M625.679 283.808L618.568 286.7L623.17 300.11L631.892 302.453L640.265 284.772L650.017 280.551L618.568 261.591L625.679 283.808Z" fill="#CBCBCB" stroke="black" stroke-opacity="0.2" stroke-width="1.4158" stroke-miterlimit="10"/>
<path d="M364.921 428.876L352.345 405.213L329.801 410.098L311.394 400.893L293.369 411.411L282.853 412.707L284.331 418.341L278.517 451.575L270.21 454.067L278.733 464.868L277.686 488.332L300.33 491.456L314.235 487.501L321.511 521.566L335.001 517.628L341.646 523.859L361.3 497.255L364.356 493.134L375.62 488.249L388.777 458.936L397.034 453.12L400.274 450.545L402.732 442.635L364.921 428.876Z" fill="#CBCBCB" stroke="black" stroke-opacity="0.2" stroke-width="1.4158" stroke-miterlimit="10"/>
<path d="M240.971 307.339L242.101 290.24L216.932 291.935L213.743 248.913L207.347 253.798L192.694 237.646L179.736 238.211L170.914 253.798H157.956V261.309L148.005 260.379L144.616 263.935L131.093 261.492L124.614 269.502L133.203 273.972L140.629 270.233L147.905 269.817L149.567 281.449L146.659 284.573L151.427 290.805L147.49 297.235L162.026 313.022L188.192 320.084L230.754 338.579L250.175 315.032L240.971 307.339Z" fill="#CBCBCB" stroke="black" stroke-opacity="0.2" stroke-width="1.4158" stroke-miterlimit="10"/>
<path d="M124.614 269.501L71.5688 241.967L7.30971 222.674L1.07983 227.859L17.9088 255.078L14.1709 263.802L33.0599 272.526L60.2719 264.832L60.6873 292.25H96.8205L102.22 283.742L107.619 286.85L133.203 273.971L124.614 269.501Z" fill="#CBCBCB" stroke="black" stroke-opacity="0.2" stroke-width="1.4158" stroke-miterlimit="10"/>
<path d="M298.07 261.874L273.782 225.516C272.354 235.004 269.895 250.99 269.895 250.99L213.743 248.929L216.933 291.951L242.101 290.256L240.972 307.355L250.175 315.065L230.771 338.595L239.493 385.954L270.642 384.924L268.981 401.541L281.441 407.357L282.87 412.741L293.386 411.445L311.411 400.926L329.818 410.132L352.362 405.246L364.938 428.909L358.359 401.674L368.875 384.957L397.981 363.537L399.892 323.457L401.553 288.578L409.378 271.047L298.07 261.907V261.874Z" fill="#CBCBCB" stroke="black" stroke-opacity="0.2" stroke-width="1.4158" stroke-miterlimit="10"/>
<path d="M422.585 563.758L404.178 558.307L389.907 566.4L393.844 570.338L352.86 563.525L349.122 577.4L379.391 580.292L402.3 600.199L419.395 602.642L414.694 615.237L419.528 616.916L435.51 606.115L440.494 584.712L438.218 559.171L426.705 558.307L422.585 563.758Z" fill="#CBCBCB" stroke="black" stroke-opacity="0.2" stroke-width="1.4158" stroke-miterlimit="10"/>
<path d="M419.395 602.641L402.3 600.199L379.391 580.291L349.122 577.4L312.789 598.637L283.916 634.563L297.838 631.871L311.743 650.565L318.388 645.165L349.953 664.274L361.166 678.814L352.445 685.046L353.076 695.847L368.858 687.322L378.61 664.889L406.238 644.533L419.528 616.915L414.694 615.237L419.395 602.641Z" fill="#CBCBCB" stroke="black" stroke-opacity="0.2" stroke-width="1.4158" stroke-miterlimit="10"/>
<path d="M124.614 269.501L131.11 261.492L144.633 263.934L148.005 260.362L157.956 261.309V253.798H170.914L179.736 238.211L192.694 237.646L207.347 253.798L213.726 248.913L269.878 250.973C269.878 250.973 272.337 234.987 273.766 225.499L267.054 215.462L306.676 134.304L279.63 123.786L260.841 102.001V90.7341L241.121 91.4819L234.542 109.511L218.577 104.443L216.318 125.663L199.605 111.954L196.415 60.4743L186.697 57.7325L146.194 82.4588L143.902 75.1805L121.89 80.9965L120.029 64.1799L114.846 55.0405L100.725 61.8868L100.309 66.6725L71.8678 64.1799L74.3597 74.9811L85.9888 77.673L87.8495 85.1508H69.5752V97.4142L80.1743 103.862L76.8517 110.093L82.4669 116.324L71.2531 172.407L55.6701 169.084L48.8256 177.392L32.2126 176.977L19.1215 189.024L16.6296 211.873L2.50854 216.659L7.29309 222.674L71.5355 241.967L124.581 269.518L124.614 269.501Z" fill="#CBCBCB" stroke="black" stroke-opacity="0.2" stroke-width="1.4158" stroke-miterlimit="10"/>
</svg>
