<?xml version="1.0" encoding="UTF-8"?>
<svg id="Camada_2" data-name="Camada 2" xmlns="http://www.w3.org/2000/svg" viewBox="0 0 152.56 26.81">
  <g id="Camada_1-2" data-name="Camada 1">
    <path d="M152.56,0H0v6.38h15.2c-1.26,2.04-2,4.45-2,7.03,0,7.4,6,13.4,13.4,13.4s13.4-6,13.4-13.4c0-2.58-.74-4.98-2-7.03h32.59c-1.26,2.04-2,4.45-2,7.03,0,7.4,6,13.4,13.4,13.4s13.4-6,13.4-13.4c0-2.58-.74-4.98-2-7.03h34.36c-1.26,2.04-2,4.45-2,7.03,0,7.4,6,13.4,13.4,13.4s13.4-6,13.4-13.4c0-2.58-.74-4.98-2-7.03h2V0ZM33.63,13.4c0,3.88-3.15,7.03-7.03,7.03s-7.03-3.15-7.03-7.03,3.15-7.03,7.03-7.03,7.03,3.15,7.03,7.03ZM89.02,13.4c0,3.88-3.15,7.03-7.03,7.03s-7.03-3.15-7.03-7.03,3.15-7.03,7.03-7.03,7.03,3.15,7.03,7.03ZM146.18,13.4c0,3.88-3.15,7.03-7.03,7.03s-7.03-3.15-7.03-7.03,3.15-7.03,7.03-7.03,7.03,3.15,7.03,7.03Z"/>
  </g>
</svg>