<svg xmlns="http://www.w3.org/2000/svg" width="192" height="192" viewBox="0 0 192 192">
  <defs>
    <style>
      .cls-1 {
        fill: #e30b13;
      }

      .cls-2 {
        fill: #fff;
        fill-rule: evenodd;
      }
    </style>
  </defs>
  <circle id="Elipse_1" data-name="Elipse 1" class="cls-1" cx="96" cy="96" r="96"/>
  <path id="Forma_1" data-name="Forma 1" class="cls-2" d="M46.5,78.579l8.255,0.037c0.553,0,2.567-.118,2.764.147a8.745,8.745,0,0,1-.332,2.174L46.1,80.9,46.06,80.79l0.332-2.138Zm-0.405,3.8,8.071,0.037c1.674,0,3.2-.065,3.907.885,0.974,1.3.158,4.445-.221,5.97l-2.69,12.162-0.884,4.054a7.755,7.755,0,0,1-.405,1.769,26.509,26.509,0,0,1-5.233-.074V107.1a3.3,3.3,0,0,1,.221-1.216l0.811-3.907-4.644.074-0.811,3.759a2.7,2.7,0,0,1-.405,1.438,24.925,24.925,0,0,1-5.381-.074l-0.037-.074,0.479-2.506,0.848-4.164,2.211-10.688,1.032-4.975A6,6,0,0,1,43.369,83C43.956,82.13,45.084,82.756,46.1,82.375Zm24.029,0c2.261-.026,5.034-0.234,6.007,1.069a4.279,4.279,0,0,1,.332,3.354l-1.437,6.707-1.99,9.4c-0.392,1.58-.449,3.163-1.585,3.98-1.157.832-5.275,0.442-7.26,0.442-1.482,0-3.645.262-4.754-.221-1.929-.84-1.632-3.3-1.106-5.417l2.911-13.636c0.451-1.818.487-4.132,1.769-5.123,1.07-.827,3.721-0.516,5.565-0.516Zm95.748,0c2.17-.02,4.976-0.242,5.933,1a4.208,4.208,0,0,1,.406,3.354q-0.738,3.427-1.474,6.855-1.014,4.791-2.027,9.582c-0.4,1.608-.466,3.078-1.7,3.833-1.031.633-5.288,0.331-7.039,0.331-1.445,0-3.6.279-4.717-.184-2.074-.858-1.744-3.119-1.216-5.344q1.417-6.651,2.837-13.3c0.452-1.818.489-4.481,1.769-5.491,1.109-.875,3.682-0.59,5.639-0.59ZM25.2,82.412H36.109c0.953,0,3.619-.243,4.238.111L39.5,86.687a2.648,2.648,0,0,1-.332,1.29l-8.071.111a12.4,12.4,0,0,0-2.727.074L27.448,92.4c2.956,0.347,8.777-.88,9.951,1.106,0.545,0.922.2,2.45-.037,3.464l-1.511,7.039c-0.35,1.4-.494,2.719-1.732,3.207a8.764,8.764,0,0,1-2.506.074H26.085c-1.24,0-5.777.232-6.413-.185-0.206-.8.427-2.656,0.627-3.5a2.23,2.23,0,0,1,.369-1.253,8.955,8.955,0,0,1,2.875-.074l6.929-.037,0.921-4.385V97.817l-6.413.074c-1.274,0-2.4.127-2.985-.59-0.78-.952-0.376-2.54-0.074-3.833l1.4-7.113C23.757,84.373,23.483,83.214,25.2,82.412Zm61.952,0H96c1.722,0,3.237-.076,3.98.885a4.356,4.356,0,0,1,.516,3.354q-0.829,3.667-1.658,7.334c-0.412,1.624-.49,2.913-1.916,3.5-1.323.546-4.459,0.221-6.228,0.221l-1.658.037-1.511,7.113c-0.161.675-.171,2.124-0.737,2.4a23.7,23.7,0,0,1-4.091.073,1.976,1.976,0,0,1-1.253-.147,2.765,2.765,0,0,1,.184-1.474l0.885-4.165,2.948-13.673c0.271-1.09.745-4.87,1.29-5.418Zm19.091,0h9.066c1.15,0,2.98-.231,3.759.221,0.012,0.025.024,0.049,0.037,0.074a17.258,17.258,0,0,1-.811,3.943,1.868,1.868,0,0,1-.516,1.364,6.135,6.135,0,0,1-2.064.074c-1.411,0-5.957-.276-6.781.184-0.219.729-.99,3.032-0.59,3.722l6.413,0.037c0.674,0,1.941-.167,2.211.258a2.134,2.134,0,0,1-.11,1.253c-0.163.673-.713,3.936-1.106,4.128l-6.449.037a6.325,6.325,0,0,0-2.4.147c-0.139.5-.982,3.441-0.627,3.722a6.365,6.365,0,0,0,2.359.111h4.091a10.679,10.679,0,0,1,2.1.073l0.184,0.221a24.329,24.329,0,0,1-1.216,5.271c-1.158.316-3.7,0.073-5.086,0.073-2.261,0-6.724.435-8-.552-1.094-.849-0.988-2.3-0.626-3.833q0.995-4.644,1.99-9.288,0.756-3.575,1.511-7.15c0.251-1.008.267-2.261,0.811-2.985A4.138,4.138,0,0,1,106.243,82.412Zm16.363,0h9.066c1.683,0,3.277-.118,4.017.811,1.125,1.411.451,3.927,0.037,5.676q-1.4,6.467-2.8,12.936c-0.48,1.934-.491,4.176-1.99,5.086-0.893.542-2.206,0.16-3.538,0.369l-6.855.073c-1.039,0-2.777.222-3.391-.258a8.026,8.026,0,0,1,.406-2.1q0.4-1.917.811-3.833,1.215-5.749,2.432-11.5,0.534-2.524,1.069-5.049a8.635,8.635,0,0,1,.516-2.137Zm17.837,0.037h8.809c1.712,0,3.273-.11,4.2.627,1.686,1.337.026,7.038-.479,9.029a6.754,6.754,0,0,1-.7,2.322c-0.518.678-1.414,0.18-2.322,0.516h0.073a3.749,3.749,0,0,1,1.438,1.474c0.687,1.614-.67,6.06-1.069,7.665-0.148.6-.454,2.91-0.811,3.133a20.611,20.611,0,0,1-5.38-.037,6.583,6.583,0,0,1,.442-2.69q0.423-2.046.847-4.091a7.056,7.056,0,0,0,.443-2.47,0.264,0.264,0,0,0-.185-0.184,10.5,10.5,0,0,0-3.059-.037l-1.326,6.192c-0.263,1.055-.262,2.459-0.774,3.317a16.941,16.941,0,0,1-4.091.11,1.88,1.88,0,0,1-1.327-.184,2.761,2.761,0,0,1,.148-1.621q0.441-2.064.884-4.128,1.474-6.818,2.948-13.636C139.437,86.617,139.858,83.058,140.443,82.449Zm6.044,4.975-2.432.111q-0.443,2.524-.884,5.049c0.756,0.014,3.991.108,4.2-.221a15.7,15.7,0,0,0,.774-4.828A6.786,6.786,0,0,0,146.487,87.424Zm-53.07.037-2.764.111-0.885,5.049h3.722a1.922,1.922,0,0,0,.516-0.184c0.266-.915.987-3.924,0.774-4.828A4.182,4.182,0,0,0,93.417,87.461Zm-42.935.479c-0.734.285-1.739-.118-2.285,0.295s-0.516,1.539-.7,2.285L46.207,96.6h4.607l1.253-6.044c0.124-.6.6-1.688,0.221-2.248C51.986,87.862,51.24,87.931,50.482,87.94Zm17.358,0.074-0.774.221c-0.424.3-.608,2.351-0.774,3.022l-1.437,6.781a11.016,11.016,0,0,0-.627,3.391,5.28,5.28,0,0,0,3.28.221c1.065-2.955,1.329-6.427,2.1-9.582,0.166-.678.914-3.074,0.7-3.685a0.337,0.337,0,0,0-.221-0.221A6.349,6.349,0,0,0,67.841,88.014Zm95.747,0a5.31,5.31,0,0,0-.922.332c-0.834,2.867-1.188,5.952-1.916,8.919-0.25,1.02-.977,3.231-0.774,4.2a4.734,4.734,0,0,0,3.317.11c0.827-2.917,1.214-6.048,1.953-9.066,0.252-1.029.985-3.25,0.774-4.238A5.414,5.414,0,0,0,163.588,88.014Zm-35.2.037-1.585.074q-1.455,6.762-2.911,13.526a15.415,15.415,0,0,0,3.243-.074,9.342,9.342,0,0,0,.774-2.911q0.736-3.482,1.474-6.965a11.157,11.157,0,0,0,.627-3.391A2.58,2.58,0,0,0,128.392,88.051Z"/>
</svg>
