<svg width="307" height="217" viewBox="0 0 307 217" fill="none" xmlns="http://www.w3.org/2000/svg">
<path d="M123.614 216.028L130.11 208.018L143.633 210.461L147.005 206.888L156.957 207.836V200.325H169.915L178.736 184.738L191.694 184.173L206.347 200.325L212.726 195.439L268.878 197.5C268.878 197.5 271.337 181.514 272.766 172.026L266.054 161.989L305.676 80.8308L278.63 70.3122L259.841 48.5271V37.2607L240.121 38.0085L233.542 56.0381L217.577 50.9698L215.318 72.1899L198.605 58.4808L195.416 7.00094L185.697 4.25911L145.195 28.9854L142.902 21.7071L120.89 27.5231L119.029 10.7066L113.846 1.56714L99.7248 8.41339L99.3095 13.1991L70.868 10.7066L73.36 21.5077L84.9891 24.1997L86.8498 31.6774H68.5755V43.9408L79.1745 50.3883L75.8519 56.6197L81.4671 62.8511L70.2534 118.934L54.6704 115.61L47.8258 123.919L31.2128 123.504L18.1218 135.551L15.6298 158.4L1.50879 163.185L6.29333 169.201L70.5358 188.493L123.581 216.044L123.614 216.028Z" fill="#CBCBCB" stroke="black" stroke-opacity="0.2" stroke-width="1.4158" stroke-miterlimit="10"/>
</svg>
