<svg width="223" height="223" viewBox="0 0 223 223" fill="none" xmlns="http://www.w3.org/2000/svg">
<path d="M221.212 67.9145L193.169 54.8036L181.54 58.3264L183.002 50.0178L161.206 39.4161L154.361 42.7395L152.7 34.8464L150.009 34.5805L145.59 43.4375L133.23 48.4724L125.787 68.6124L117.215 68.7619L93.425 21.3034L72.6754 17.0328C72.6754 17.0328 72.2933 9.10647 71.9942 3.3071L51.3775 0.997314L57.3914 14.0916L29.7806 9.30588L3.39918 23.6298L0.907227 41.244V52.5104L19.6965 74.2955L46.7425 84.8141L7.12047 165.972L13.8321 176.009L38.1203 212.367L149.427 221.507L164.894 186.827L169.213 170.293L185.926 149.82L180.66 137.042L199.067 126.523L221.262 67.8812L221.212 67.9145Z" fill="#CBCBCB" stroke="black" stroke-opacity="0.2" stroke-width="1.4158" stroke-miterlimit="10"/>
</svg>
